<svg xmlns="http://www.w3.org/2000/svg" width="48" height="48" viewBox="0 0 48 48">
    <g fill="none" fill-rule="evenodd">
        <g>
            <g>
                <g transform="translate(-737 -1134) translate(737 1134)">
                    <rect width="48" height="48" fill="#F35062" rx="5"/>
                    <path fill="#FFF" fill-rule="nonzero" stroke="#FFF" stroke-width=".5" d="M37.468 22.333c-1.107-.321-4.265-1.613-4.265-3.29V8H28.36l-.059.663c-.019.195-.487 4.81-4.303 4.81s-4.284-4.615-4.299-4.81L19.64 8h-4.674v11.044c0 2.46-4.308 3.201-4.352 3.211l-.614.103V40h27.994V22.484l-.526-.15zm-26.006 1.233c1.457-.355 4.966-1.525 4.966-4.522V9.462h1.906c.4 2.198 1.94 5.473 5.663 5.473 3.728 0 5.268-3.275 5.668-5.473h2.076v9.582c0 2.582 3.402 4.04 4.791 4.522v12.16h-25.07v-12.16zm25.07 14.972h-25.07v-1.35h25.07v1.35z"/>
                </g>
            </g>
        </g>
    </g>
</svg>
