<?xml version="1.0" encoding="UTF-8"?>
<svg width="21px" height="16px" viewBox="0 0 21 16" version="1.1" xmlns="http://www.w3.org/2000/svg" xmlns:xlink="http://www.w3.org/1999/xlink">
    <!-- Generator: Sketch 63.1 (92452) - https://sketch.com -->
    <title>icon-twitter</title>
    <desc>Created with Sketch.</desc>
    <g id="Symbols" stroke="none" stroke-width="1" fill="none" fill-rule="evenodd">
        <g id="UI/LP/Footer" transform="translate(-1040.000000, -171.000000)" fill="#A8ACB5">
            <g id="Footer" transform="translate(0.000000, 38.000000)">
                <g id="Group-7">
                    <g transform="translate(135.000000, 0.000000)">
                        <g id="Social-Icons" transform="translate(905.000000, 132.000000)">
                            <path d="M21,2.90667624 C20.2281214,3.22828428 19.3949825,3.44651831 18.5250875,3.53840632 C19.4194866,3.03302225 20.0933489,2.25197416 20.424154,1.29863604 C19.5910152,1.75807609 18.672112,2.10265614 17.6919487,2.27494616 C16.907818,1.49389806 15.7806301,1 14.5431739,1 C12.1662777,1 10.2304551,2.81478823 10.2304551,5.04307251 C10.2304551,5.36468055 10.2672112,5.66331658 10.3407235,5.96195262 C6.76312719,5.7896626 3.57759627,4.1816224 1.457993,1.73510409 C1.09043174,2.33237617 0.869894982,3.02153625 0.869894982,3.76812635 C0.869894982,5.16941852 1.62952159,6.40990668 2.79346558,7.13352477 C2.08284714,7.11055276 1.42123687,6.92677674 0.845390898,6.6281407 L0.845390898,6.67408471 C0.845390898,8.62670495 2.32788798,10.2692032 4.30046674,10.6367552 C3.93290548,10.7286432 3.55309218,10.7745872 3.16102684,10.7745872 C2.87922987,10.7745872 2.60968495,10.7516152 2.35239207,10.7056712 C2.90373396,12.3137114 4.49649942,13.4852836 6.38331389,13.5082556 C4.91306884,14.5879397 3.05075846,15.2426418 1.02917153,15.2426418 C0.686114352,15.2426418 0.343057176,15.2196698 0,15.1852118 C1.91131855,16.3338119 4.17794632,17 6.60385064,17 C14.5309218,17 18.8681447,10.8435032 18.8681447,5.50251256 C18.8681447,5.33022254 18.8681447,5.15793252 18.8558926,4.9741565 C19.6890315,4.43431443 20.424154,3.72218234 21,2.90667624 L21,2.90667624 L21,2.90667624 Z" id="icon-twitter"></path>
                        </g>
                    </g>
                </g>
            </g>
        </g>
    </g>
</svg>