<?xml version="1.0" encoding="UTF-8"?>
<svg width="238px" height="76px" viewBox="0 0 238 76" version="1.1" xmlns="http://www.w3.org/2000/svg" xmlns:xlink="http://www.w3.org/1999/xlink">
    <!-- Generator: Sketch 63.1 (92452) - https://sketch.com -->
    <title>img-btn-apple</title>
    <desc>Created with Sketch.</desc>
    <g id="Landing-Page" stroke="none" stroke-width="1" fill="none" fill-rule="evenodd">
        <g id="Landing-Page---Web" transform="translate(-135.000000, -381.000000)">
            <g id="Group-11" transform="translate(135.000000, 146.000000)">
                <g id="Store-Buttons" transform="translate(0.000000, 235.000000)">
                    <g id="UI/Buttons/AppStore">
                        <g id="App-Store-Badge-US-Black" transform="translate(0.000000, 0.000000)">
                            <path d="M15.2260812,75.9960264 C14.6134039,75.9960264 14.0155267,75.9882777 13.4076554,75.9747673 C12.1484007,75.9585563 10.8920893,75.8502432 9.64902439,75.6507163 C8.4899291,75.4534806 7.36707734,75.0865863 6.31750597,74.5621353 C5.27755861,74.0420298 4.32904302,73.3600527 3.50829557,72.5423298 C2.67566799,71.7342392 1.98246749,70.7969921 1.45616436,69.7677298 C0.924061829,68.7317781 0.555815209,67.6213627 0.364252234,66.4751647 C0.157380851,65.2435619 0.0454548613,63.9982173 0.0294393989,62.7498693 C0.0166903696,62.3308481 0,60.9357001 0,60.9357001 L0,15.038948 C0,15.038948 0.017776249,13.6652379 0.0295399432,13.2616543 C0.0448746258,12.0152838 0.156149764,10.7718717 0.362402217,9.54218028 C0.554318791,8.39284236 0.922850493,7.27922498 1.45523936,6.23987974 C1.97960818,5.21132836 2.66896018,4.27338132 3.4965721,3.46239883 C4.3232538,2.64371086 5.27480351,1.95822213 6.31652063,1.43093067 C7.36367978,0.90816464 8.4844095,0.54385845 9.64116182,0.350217505 C10.8883091,0.148686252 12.148982,0.0397287046 13.4126022,0.0242591237 L15.2270666,0 L221.8831,0 L223.719242,0.0252326676 C224.971368,0.0399335727 226.220589,0.147919075 227.456276,0.348270417 C228.624738,0.544340301 229.757148,0.91118845 230.816269,1.43675207 C232.903205,2.49939715 234.601306,4.18060191 235.672563,6.2447276 C236.196454,7.27689781 236.559301,8.38143139 236.74879,9.52084179 C236.957498,10.7606228 237.074306,12.0138062 237.098282,13.2703963 C237.104114,13.8330649 237.104114,14.4374569 237.104114,15.038948 C237.12,15.7840071 237.12,16.4931643 237.12,17.2081428 L237.12,58.7897313 C237.12,59.5115445 237.12,60.2158737 237.104114,60.9259647 C237.104114,61.5720799 237.104114,62.1639548 237.096272,62.7731151 C237.072815,64.007282 236.957954,65.2380969 236.752611,66.4556938 C236.564974,67.6101602 236.198733,68.7292429 235.666731,69.7736903 C235.136708,70.791781 234.447488,71.7209095 233.624474,72.5268326 C232.802988,73.3489499 231.852798,74.034917 230.810437,74.5583603 C229.75425,75.086843 228.623508,75.4550941 227.456276,75.6507163 C226.213305,75.851308 224.956873,75.959628 223.697524,75.9747673 C223.108535,75.9882777 222.491796,75.9960264 221.892954,75.9960264 L219.713151,76 L15.2260812,75.9960264 Z" id="Background-Black" fill="#000000" fill-rule="nonzero"></path>
                            <path d="M84.0921724,51.8274279 L74.6433155,51.8274279 L72.3741845,58.4225714 L68.3720245,58.4225714 L77.3218291,34.0222402 L81.479933,34.0222402 L90.4297375,58.4225714 L86.3593271,58.4225714 L84.0921724,51.8274279 Z M75.6219172,48.7841065 L83.1116943,48.7841065 L79.4194857,38.0806767 L79.3161619,38.0806767 L75.6219172,48.7841065 Z M109.758273,49.528633 C109.758273,55.0568858 106.752262,58.6086882 102.215956,58.6086882 C99.871179,58.7294218 97.6625275,57.5205386 96.5294943,55.4962607 L96.4436573,55.4962607 L96.4436573,64.3076923 L92.733902,64.3076923 L92.733902,40.632769 L96.324803,40.632769 L96.324803,43.5916579 L96.3930334,43.5916579 C97.5764028,41.5800707 99.787436,40.3717079 102.147725,40.4466324 C106.734635,40.4466521 109.758273,44.0157261 109.758273,49.528633 Z M105.945194,49.528633 C105.945194,45.9269413 104.054245,43.5590403 101.169104,43.5590403 C98.3346463,43.5590403 96.4281068,45.9768109 96.4281068,49.528633 C96.4281068,53.1130727 98.3346463,55.5135717 101.169104,55.5135717 C104.054265,55.5135717 105.945194,53.1629619 105.945194,49.528633 Z M129.650179,49.528633 C129.650179,55.0568858 126.644167,58.6086882 122.107862,58.6086882 C119.763085,58.7294218 117.554433,57.5205386 116.4214,55.4962607 L116.335563,55.4962607 L116.335563,64.3076923 L112.625808,64.3076923 L112.625808,40.632769 L116.216629,40.632769 L116.216629,43.5916579 L116.284859,43.5916579 C117.468237,41.5800719 119.679279,40.3717162 122.039571,40.4466521 C126.626621,40.4466521 129.650179,44.0157261 129.650179,49.528633 Z M125.83712,49.528633 C125.83712,45.9269413 123.946151,43.5590403 121.06101,43.5590403 C118.226552,43.5590403 116.320013,45.9768109 116.320013,49.528633 C116.320013,53.1130727 118.226552,55.5135717 121.06101,55.5135717 C123.946171,55.5135717 125.83712,53.1629619 125.83712,49.528633 L125.83712,49.528633 Z M142.797093,51.6240198 C143.071971,54.043716 145.460036,55.6324491 148.72334,55.6324491 C151.850222,55.6324491 154.09985,54.0436374 154.09985,51.8618729 C154.09985,49.967949 152.743046,48.8339368 149.530407,48.0567731 L146.317768,47.294975 C141.765872,46.2127384 139.652684,44.117332 139.652684,40.7171032 C139.652684,36.5071127 143.379986,33.6153846 148.672656,33.6153846 C153.910709,33.6153846 157.50159,36.5071127 157.62246,40.7171032 L153.877572,40.7171032 C153.653398,38.2820609 151.608441,36.8122249 148.619976,36.8122249 C145.631511,36.8122249 143.586574,38.2993522 143.586574,40.4638254 C143.586574,42.1888845 144.892694,43.2039602 148.087786,43.9810257 L150.81892,44.6411197 C155.904962,45.8250604 158.018149,47.8360737 158.018149,51.4051084 C158.018149,55.9700807 154.323984,58.8291912 148.448422,58.8291912 C142.951041,58.8291912 139.239349,56.0372415 138.999565,51.6238429 L142.797093,51.6240198 Z M166.024465,36.4227785 L166.024465,40.632769 L169.461299,40.632769 L169.461299,43.524497 L166.024465,43.524497 L166.024465,53.3318071 C166.024465,54.8553836 166.712618,55.5653669 168.223409,55.5653669 C168.631418,55.5583638 169.038765,55.5301607 169.443752,55.4808755 L169.443752,58.3553319 C168.764499,58.4802604 168.074095,58.5368401 167.383205,58.5241968 C163.724153,58.5241968 162.297163,57.1713912 162.297163,53.7212732 L162.297163,43.524497 L159.669353,43.524497 L159.669353,40.632769 L162.297123,40.632769 L162.297123,36.4227785 L166.024465,36.4227785 Z M171.451739,49.528633 C171.451739,43.9313133 174.800839,40.4140345 180.023362,40.4140345 C185.263411,40.4140345 188.596921,43.9312347 188.596921,49.528633 C188.596921,55.1413183 185.280958,58.6432315 180.023362,58.6432315 C174.767622,58.6432315 171.451739,55.1412986 171.451739,49.528633 Z M184.816979,49.528633 C184.816979,45.6889899 183.029353,43.4228126 180.023342,43.4228126 C177.01733,43.4228126 175.231661,45.7062616 175.231661,49.528633 C175.231661,53.383622 177.01733,55.6325473 180.023342,55.6325473 C183.029353,55.6325473 184.816979,53.383622 184.816979,49.528633 L184.816979,49.528633 Z M191.655473,40.632769 L195.193694,40.632769 L195.193694,43.660705 L195.279531,43.660705 C195.772946,41.7114852 197.587413,40.3699645 199.626735,40.4466128 C200.054252,40.4451435 200.480588,40.4908445 200.897762,40.5828601 L200.897762,43.9984349 C200.358049,43.8361 199.795035,43.7615667 199.230927,43.7777748 C198.140295,43.7342233 197.084804,44.1620627 196.341597,44.9489552 C195.598389,45.7358477 195.241716,46.8031776 195.365228,47.8706955 L195.365228,58.4225321 L191.655473,58.4225321 L191.655473,40.632769 Z M218.001941,53.1974855 C217.502889,56.4269237 214.307776,58.6432118 210.219839,58.6432118 C204.962243,58.6432118 201.69892,55.1758222 201.69892,49.6130458 C201.69892,44.0329977 204.97979,40.4140148 210.063896,40.4140148 C215.06416,40.4140148 218.208589,43.7950464 218.208589,49.1889775 L218.208589,50.4400791 L205.443769,50.4400791 L205.443769,50.6607392 C205.32459,51.9851549 205.789196,53.2961428 206.719406,54.26023 C207.649617,55.2243171 208.955775,55.7485821 210.305636,55.6996689 C212.105902,55.8657035 213.803201,54.8481482 214.479351,53.1974658 L218.001941,53.1974855 Z M205.461281,47.8880064 L214.496877,47.8880064 C214.5642,46.6979106 214.124098,45.5341409 213.282603,44.6770611 C212.441108,43.8199812 211.274518,43.3473017 210.063896,43.3729037 C208.843696,43.3657362 207.671141,43.8386373 206.806852,44.686496 C205.942562,45.5343547 205.458154,46.6869177 205.461281,47.8880064 L205.461281,47.8880064 Z" id="App-Store" fill="#FFFFFF" fill-rule="nonzero"></path>
                            <path d="M75.5892286,15.2235919 C77.1661027,15.106469 78.7106161,15.7274264 79.7976516,16.9155498 C80.8846872,18.1036733 81.3996655,19.733728 81.2008423,21.3570524 C81.2008423,25.3005735 79.141633,27.567387 75.5892286,27.567387 L71.2814724,27.567387 L71.2814724,15.2235919 L75.5892286,15.2235919 Z M73.1337754,25.8217078 L75.3823223,25.8217078 C76.509238,25.8914283 77.6065181,25.4318739 78.369489,24.5706457 C79.1324599,23.7094174 79.4798936,22.5382043 79.3153207,21.3822082 C79.4679202,20.2310094 79.1154831,19.069461 78.3544039,18.2152561 C77.5933247,17.3610512 76.5032493,16.9035811 75.3823223,16.9679677 L73.1337754,16.9679677 L73.1337754,25.8217078 Z M83.2932301,22.9054986 C83.1389041,21.2357938 83.9124373,19.6198798 85.289412,18.7354666 C86.6663867,17.8510533 88.408728,17.8510533 89.7857027,18.7354666 C91.1626774,19.6198798 91.9362106,21.2357938 91.7818846,22.9054986 C91.9391468,24.5769976 91.1663197,26.1960458 89.7881241,27.0823629 C88.4099285,27.9686801 86.6651862,27.9686801 85.2869906,27.0823629 C83.908795,26.1960458 83.1359679,24.5769976 83.2932301,22.9054986 Z M89.9549452,22.9054986 C89.9549452,20.886271 89.0785316,19.7054385 87.5404855,19.7054385 C85.9965632,19.7054385 85.1280444,20.886271 85.1280444,22.9055193 C85.1280444,24.9409244 85.9966231,26.1126544 87.5404855,26.1126544 C89.0785715,26.1126544 89.9549452,24.9328149 89.9549452,22.9054986 L89.9549452,22.9054986 Z M103.065613,27.5672008 L101.223063,27.5672008 L99.3629455,20.7064361 L99.2224164,20.7064361 L97.3700934,27.5672008 L95.5450927,27.5672008 L93.0642759,18.2518437 L94.8658517,18.2518437 L96.4780898,25.3600082 L96.610824,25.3600082 L98.4611883,18.2518437 L100.165167,18.2518437 L102.015531,25.3600082 L102.156061,25.3600082 L103.760484,18.2518437 L105.536676,18.2518437 L103.065613,27.5672008 Z M107.623208,18.2518437 L109.333043,18.2518437 L109.333043,19.7316701 L109.465777,19.7316701 C109.927348,18.6421265 111.005907,17.9756421 112.151541,18.0720295 C113.038602,18.0029996 113.907858,18.3552181 114.513876,19.0292363 C115.119894,19.7032545 115.39691,20.6259288 115.266708,21.5367425 L115.266708,27.5670973 L113.490516,27.5670973 L113.490516,21.9984008 C113.490516,20.501404 112.862022,19.7569293 111.548411,19.7569293 C110.946732,19.7279238 110.362818,19.972331 109.949753,20.4260748 C109.536689,20.8798186 109.335671,21.4976455 109.3994,22.1175805 L109.3994,27.5672008 L107.623208,27.5672008 L107.623208,18.2518437 Z M118.096919,14.6153846 L119.873111,14.6153846 L119.873111,27.5671801 L118.096919,27.5671801 L118.096919,14.6153846 Z M122.342216,22.9054986 C122.188008,21.2356845 122.961664,19.6197296 124.33874,18.7353028 C125.715817,17.8508759 127.458248,17.8508759 128.835325,18.7353028 C130.212402,19.6197296 130.986057,21.2356845 130.83185,22.9054986 C130.988912,24.5770575 130.215943,26.1960598 128.837679,27.082338 C127.459415,27.9686161 125.71465,27.9686161 124.336386,27.082338 C122.958122,26.1960598 122.185153,24.5770575 122.342216,22.9054986 L122.342216,22.9054986 Z M129.003931,22.9054986 C129.003931,20.886271 128.127517,19.7054385 126.589471,19.7054385 C125.045549,19.7054385 124.17703,20.886271 124.17703,22.9055193 C124.17703,24.9409244 125.045609,26.1126544 126.589471,26.1126544 C128.127537,26.1126544 129.003931,24.9328149 129.003931,22.9054986 L129.003931,22.9054986 Z M132.701741,24.9328149 C132.701741,23.2560039 133.908002,22.2893266 136.049178,22.1519421 L138.487063,22.0064896 L138.487063,21.2024353 C138.487063,20.2185669 137.858569,19.6630088 136.644513,19.6630088 C135.652974,19.6630088 134.965918,20.0397871 134.768766,20.6983887 L133.049177,20.6983887 C133.230699,19.0983483 134.68484,18.0720709 136.72648,18.0720709 C138.982842,18.0720709 140.25546,19.2346985 140.25546,21.2024353 L140.25546,27.5672215 L138.545625,27.5672215 L138.545625,26.2581069 L138.405096,26.2581069 C137.824368,27.2141226 136.791646,27.7728602 135.701763,27.7207007 C134.937729,27.8029573 134.175731,27.5468458 133.60415,27.0156818 C133.032568,26.4845178 132.704752,25.727877 132.701741,24.9328149 L132.701741,24.9328149 Z M138.487063,24.1368288 L138.487063,23.3580338 L136.289263,23.5034864 C135.049824,23.5893387 134.487687,24.0257172 134.487687,24.8469418 C134.487687,25.685337 135.190353,26.1732268 136.156609,26.1732268 C136.728611,26.2331577 137.299623,26.0502512 137.738927,25.6663783 C138.178231,25.2825054 138.448211,24.7305365 138.487063,24.1368288 Z M142.589871,22.9054986 C142.589871,19.9620027 144.051827,18.0973094 146.325737,18.0973094 C147.473949,18.0425504 148.549355,18.6793532 149.085674,19.731608 L149.218408,19.731608 L149.218408,14.6153846 L150.9946,14.6153846 L150.9946,27.5671801 L149.29258,27.5671801 L149.29258,26.0954218 L149.152051,26.0954218 C148.575192,27.1389463 147.486536,27.764985 146.325757,27.7207007 C144.036217,27.7208042 142.589871,25.8560695 142.589871,22.9054986 Z M144.424686,22.9054986 C144.424686,24.8813035 145.324504,26.0702247 146.829392,26.0702247 C148.326424,26.0702247 149.251646,24.8641537 149.251646,22.9135873 C149.251646,20.9721234 148.316711,19.7488612 146.829392,19.7488612 C145.334198,19.7488612 144.424626,20.9458505 144.424626,22.9054986 L144.424686,22.9054986 Z M158.343371,22.9054986 C158.189045,21.2357938 158.962578,19.6198798 160.339553,18.7354666 C161.716528,17.8510533 163.458869,17.8510533 164.835844,18.7354666 C166.212818,19.6198798 166.986352,21.2357938 166.832026,22.9054986 C166.989288,24.5769976 166.216461,26.1960458 164.838265,27.0823629 C163.460069,27.9686801 161.715327,27.9686801 160.337132,27.0823629 C158.958936,26.1960458 158.186109,24.5769976 158.343371,22.9054986 L158.343371,22.9054986 Z M165.005066,22.9054986 C165.005066,20.886271 164.128673,19.7054385 162.590626,19.7054385 C161.046704,19.7054385 160.178185,20.886271 160.178185,22.9055193 C160.178185,24.9409244 161.046764,26.1126544 162.590626,26.1126544 C164.128693,26.1126544 165.005066,24.9328149 165.005066,22.9054986 Z M169.215246,18.2518437 L170.925081,18.2518437 L170.925081,19.7316701 L171.057815,19.7316701 C171.519386,18.6421265 172.597945,17.9756421 173.743579,18.0720295 C174.63064,18.0029996 175.499896,18.3552181 176.105914,19.0292363 C176.711932,19.7032545 176.988948,20.6259288 176.858746,21.5367425 L176.858746,27.5670973 L175.082554,27.5670973 L175.082554,21.9984008 C175.082554,20.501404 174.45406,19.7569293 173.140449,19.7569293 C172.538769,19.7279238 171.954855,19.972331 171.541791,20.4260748 C171.128727,20.8798186 170.927709,21.4976455 170.991438,22.1175805 L170.991438,27.5672008 L169.215246,27.5672008 L169.215246,18.2518437 Z M186.89524,15.9326086 L186.89524,18.2942734 L188.84516,18.2942734 L188.84516,19.8428024 L186.89524,19.8428024 L186.89524,24.6328074 C186.89524,25.608587 187.283669,26.035863 188.167858,26.035863 C188.394223,26.0351132 188.62036,26.0209468 188.84516,25.9934333 L188.84516,27.5247711 C188.526185,27.5838349 188.203006,27.6152575 187.878985,27.6187122 C185.903701,27.6187122 185.117089,26.8994967 185.117089,25.103506 L185.117089,19.8427196 L183.688333,19.8427196 L183.688333,18.2941907 L185.117089,18.2941907 L185.117089,15.9326086 L186.89524,15.9326086 Z M191.271312,14.6153846 L193.031895,14.6153846 L193.031895,19.7488405 L193.172424,19.7488405 C193.656167,18.6497614 194.753602,17.9824276 195.91665,18.0801183 C196.798674,18.0304424 197.656163,18.3904151 198.255558,19.061988 C198.854952,19.7335609 199.133821,20.6467855 199.016207,21.55292 L199.016207,27.5672008 L197.238236,27.5672008 L197.238236,22.0064482 C197.238236,20.5185331 196.568669,19.7649767 195.3137,19.7649767 C194.695757,19.7125212 194.086951,19.9450411 193.65004,20.4003744 C193.213129,20.8557076 192.992664,21.4874246 193.047585,22.1266415 L193.047585,27.5672008 L191.271392,27.5672008 L191.271312,14.6153846 Z M209.372895,25.0519946 C208.874831,26.8091334 207.231976,27.9444404 205.473075,27.7469943 C204.272978,27.7797841 203.119619,27.264919 202.31901,26.3390051 C201.518401,25.4130911 201.15148,24.1697339 201.315602,22.9388259 C201.15584,21.704497 201.521385,20.4591475 202.317536,19.5254112 C203.113687,18.5916748 204.262101,18.0614309 205.46526,18.0720502 C207.969502,18.0720502 209.480245,19.8428851 209.480245,22.7680727 L209.480245,23.4095659 L203.124972,23.4095659 L203.124972,23.5125888 C203.068733,24.2038353 203.296823,24.8875671 203.753148,25.3956332 C204.209473,25.9036993 204.851692,26.1889573 205.521863,26.1812535 C206.390846,26.2892304 207.23674,25.8430841 207.66306,25.0519325 L209.372895,25.0519946 Z M203.124932,22.0499122 L207.670815,22.0499122 C207.716091,21.4177085 207.501321,20.7951124 207.079431,20.3355519 C206.65754,19.8759913 206.067766,19.6222056 205.455446,19.6367359 C204.834831,19.6286656 204.237369,19.8803524 203.79859,20.3347032 C203.35981,20.7890541 203.116904,21.4075579 203.124972,22.0499122 L203.124932,22.0499122 Z" id="Download-on-the" fill="#FFFFFF" fill-rule="nonzero"></path>
                            <path d="M49.286966,37.93267 C49.3318335,34.5168068 51.1575428,31.3615884 54.1244537,29.5724506 C52.2442608,26.938562 49.2079589,25.3284892 45.9314998,25.2279377 C42.4843977,24.8730363 39.1425825,27.2511742 37.3860023,27.2511742 C35.5954281,27.2511742 32.8908969,25.2631742 29.9785633,25.3219486 C26.1466916,25.4433803 22.6609479,27.5285464 20.7966644,30.8145454 C16.8265974,37.5566266 19.7879102,47.4652159 23.5909019,52.9150055 C25.4936192,55.5836126 27.7173494,58.5645153 30.6270555,58.4588059 C33.4743777,58.3429686 34.5377973,56.6778955 37.9747587,56.6778955 C41.3798199,56.6778955 42.3775302,58.4588059 45.3462741,58.3915949 C48.4015836,58.3429485 50.3265734,55.7111283 52.1625344,53.0172516 C53.5296336,51.1157716 54.5816143,49.0142221 55.2795092,46.7904481 C51.6507295,45.2850087 49.2912014,41.7973114 49.286966,37.93267 L49.286966,37.93267 Z M43.6795439,21.6437871 C45.3454255,19.6822082 46.1661422,17.1609308 45.9674028,14.6153846 C43.4223062,14.877585 41.0713499,16.0707096 39.3829624,17.957028 C37.7157574,19.8181345 36.8711553,22.2529602 37.035183,24.7252244 C39.6144063,24.7512727 42.0633245,23.6155446 43.6795439,21.6437871 L43.6795439,21.6437871 Z" id="Icon" fill="#FFFFFF" fill-rule="nonzero"></path>
                        </g>
                    </g>
                </g>
            </g>
        </g>
    </g>
</svg>