<?xml version="1.0" encoding="UTF-8"?>
<svg width="287px" height="275px" viewBox="0 0 287 275" version="1.1" xmlns="http://www.w3.org/2000/svg" xmlns:xlink="http://www.w3.org/1999/xlink">
    <!-- Generator: Sketch 63.1 (92452) - https://sketch.com -->
    <title>UI/LP/Logo/Watermark</title>
    <desc>Created with Sketch.</desc>
    <g id="Symbols" stroke="none" stroke-width="1" fill="none" fill-rule="evenodd">
        <g id="UI/LP/Footer" fill="#FAFAFA" fill-rule="nonzero">
            <g id="UI/LP/Logo/Watermark">
                <path d="M146.532069,61 C166.550295,60.9905989 185.751334,68.9238074 199.906359,83.0524279 C214.061384,97.1810483 222.009419,116.34627 222,136.327155 C222,177.929189 188.211852,211.654301 146.532069,211.654301 L59.3444227,211.654301 L48.6901277,275 L2.84217094e-14,275 L36.1535741,61 L146.532069,61 Z M149.640844,0 C186.083026,0 221.031598,14.4944238 246.79347,40.2926857 C272.555342,66.0909476 287.018771,101.078317 287,137.553164 C286.980428,213.468688 225.488374,275 149.640844,275 L65.008635,275 L67.7352794,258.873566 L73.1885682,226.443485 L148.578515,226.443485 C196.979489,225.280116 235.547137,185.558074 235.325274,137.100251 C235.103411,88.6424287 196.173656,49.2758433 147.764063,48.556515 L41,48.556515 L49.2153441,0 L149.640844,0 Z" id="Combined-Shape"></path>
            </g>
        </g>
    </g>
</svg>