<?xml version="1.0" encoding="UTF-8"?>
<svg width="168px" height="50px" viewBox="0 0 168 50" version="1.1" xmlns="http://www.w3.org/2000/svg" xmlns:xlink="http://www.w3.org/1999/xlink">
    <!-- Generator: Sketch 63.1 (92452) - https://sketch.com -->
    <title>UI/LP/Logo/Black</title>
    <desc>Created with Sketch.</desc>
    <g id="Symbols" stroke="none" stroke-width="1" fill="none" fill-rule="evenodd">
        <g id="UI/LP/Footer" transform="translate(-138.000000, -38.000000)">
            <g id="Footer" transform="translate(0.000000, 38.000000)">
                <g id="Group-7">
                    <g transform="translate(135.000000, 0.000000)">
                        <g id="UI/LP/Logo/Black" transform="translate(3.000000, 0.000000)">
                            <g id="Group-11">
                                <g id="Group-2" fill-rule="nonzero">
                                    <path d="M40.0540541,24.9014575 C40.0545949,28.5179215 38.6203761,31.9864798 36.066909,34.5440891 C33.513442,37.1016984 30.0498936,38.5388527 26.438205,38.5393944 L10.705015,38.5393944 L8.77125849,50 L0,50 L6.52744818,11.2676056 L26.4443244,11.2676056 C33.9617603,11.2709887 40.0540541,17.3740813 40.0540541,24.9014575 L40.0540541,24.9014575 Z" id="Path" fill="#DB2C3B"></path>
                                    <path d="M52,24.6499106 C51.9977592,38.2621 40.9318322,49.2957746 27.2820943,49.2957746 C27.2070255,49.2957746 27.1319568,49.2957746 27.0609458,49.2957746 L27.0609458,49.2957746 L12.0613992,49.2957746 L12.5523893,46.4024502 L13.5363985,40.5854516 L26.0404167,40.5854516 C26.3305472,40.6016381 26.6227067,40.6097313 26.9148661,40.6097313 C26.9635593,40.6097313 27.0122526,40.6097313 27.0609458,40.6097313 C35.8277012,40.4797733 42.8548105,33.3344833 42.8147629,24.5909693 C42.7747154,15.8474553 35.6824461,8.76648039 26.9148661,8.71639292 L7.72972973,8.71639292 L9.20472911,0 L27.0325414,0 L27.0325414,0 C27.1136968,0 27.1968811,0 27.2820943,0 C40.9329526,0.00111726431 51.9988797,11.0366037 52,24.6499106 L52,24.6499106 Z" id="Path" fill="#2D3748"></path>
                                </g>
                                <g id="Group" transform="translate(53.000000, 12.000000)" fill="#2D3748" fill-rule="nonzero">
                                    <path d="M9.66944087,30 L0,30 L5.256576,0 L16.3628825,0 C24.0585507,0 28.2208589,3.43063187 28.2208589,9.06593407 C28.2208589,16.7925824 23.0051901,20.207761 14.302182,20.207761 L11.4386775,20.207761 L9.66944087,30 Z M14.2715016,12.8416896 C16.9611504,12.8416896 18.5616448,11.9505495 18.5616448,10.0446429 C18.5616448,8.22630495 17.2577276,7.67513736 15.1100993,7.67513736 L13.6220997,7.67513736 L12.7016875,12.8262363 L14.2715016,12.8416896 Z" id="Shape"></path>
                                    <path d="M34.0379892,0 L46.0330985,0 C52.53833,0 59.9693252,3.51880474 59.9693252,12.797527 C59.9693252,23.3487893 52.4387856,30 42.285249,30 L28.9263804,30 L34.0379892,0 Z M39.6075026,21.566203 L42.6784497,21.566203 C47.5859924,21.566203 50.1442854,17.7537352 50.1442854,13.8382277 C50.1442854,10.7882535 48.4271432,8.28954147 44.4553186,8.28954147 L41.9020028,8.28954147 L39.6075026,21.566203 Z" id="Shape"></path>
                                    <path d="M80.1949509,30 L79.5177529,25.4206731 L69.8163784,25.4206731 L67.3230585,30 L56.4417178,30 L74.7824972,0 L85.0789851,0 L90.3067485,29.9948489 L80.1949509,30 Z M77.8298882,10.2146291 L73.5717492,17.9412775 L78.7020372,17.9412775 L77.8298882,10.2146291 Z" id="Shape"></path>
                                    <polygon id="Path" points="93.1288344 29.9742666 98.5218682 0 108.573476 0 104.691331 21.6160576 115 21.6160576 113.489111 30"></polygon>
                                </g>
                            </g>
                        </g>
                    </g>
                </g>
            </g>
        </g>
    </g>
</svg>