<svg width="238" height="76" xmlns="http://www.w3.org/2000/svg"><g fill="none"><path d="M15.226 75.996c-.613 0-1.21-.008-1.818-.021a25.814 25.814 0 01-3.759-.324 11.932 11.932 0 01-3.331-1.089 10.866 10.866 0 01-2.81-2.02 10.579 10.579 0 01-2.052-2.774 11.273 11.273 0 01-1.092-3.293A24.376 24.376 0 01.03 62.75C.017 62.33 0 60.936 0 60.936V15.039s.018-1.374.03-1.777c.015-1.247.126-2.49.332-3.72A11.34 11.34 0 011.455 6.24a10.682 10.682 0 012.042-2.778 11.186 11.186 0 012.82-2.031A11.809 11.809 0 019.64.35a25.608 25.608 0 013.772-.327L15.227 0h206.656l1.836.025a25.28 25.28 0 013.737.323 12.02 12.02 0 013.36 1.089 11.182 11.182 0 014.857 4.808 11.353 11.353 0 011.076 3.276c.208 1.24.325 2.493.35 3.75.005.562.005 1.166.005 1.768.016.745.016 1.454.016 2.17v41.58c0 .723 0 1.427-.016 2.137 0 .646 0 1.238-.008 1.847a25 25 0 01-.343 3.683 11.306 11.306 0 01-1.086 3.318 10.896 10.896 0 01-2.043 2.753 10.88 10.88 0 01-2.814 2.031 11.887 11.887 0 01-3.354 1.093c-1.243.2-2.5.309-3.758.324a82.89 82.89 0 01-1.805.021l-2.18.004-204.487-.004z" fill="#000"/><path d="M84.092 51.827h-9.449l-2.269 6.596h-4.002l8.95-24.4h4.158l8.95 24.4h-4.07l-2.268-6.596zm-8.47-3.043h7.49l-3.693-10.703h-.103l-3.694 10.703zm34.136.745c0 5.528-3.006 9.08-7.542 9.08-2.345.12-4.553-1.088-5.687-3.113h-.085v8.812h-3.71V40.633h3.59v2.959h.069c1.183-2.012 3.394-3.22 5.755-3.145 4.587 0 7.61 3.569 7.61 9.082zm-3.813 0c0-3.602-1.89-5.97-4.776-5.97-2.834 0-4.74 2.418-4.74 5.97 0 3.584 1.906 5.985 4.74 5.985 2.885 0 4.776-2.351 4.776-5.985zm23.705 0c0 5.528-3.006 9.08-7.542 9.08-2.345.12-4.554-1.088-5.687-3.113h-.085v8.812h-3.71V40.633h3.59v2.959h.069c1.183-2.012 3.394-3.22 5.755-3.145 4.587 0 7.61 3.569 7.61 9.082zm-3.813 0c0-3.602-1.89-5.97-4.776-5.97-2.834 0-4.741 2.418-4.741 5.97 0 3.584 1.907 5.985 4.741 5.985 2.885 0 4.776-2.351 4.776-5.985zm16.96 2.095c.275 2.42 2.663 4.008 5.926 4.008 3.127 0 5.377-1.588 5.377-3.77 0-1.894-1.357-3.028-4.57-3.805l-3.212-.762c-4.552-1.082-6.665-3.178-6.665-6.578 0-4.21 3.727-7.102 9.02-7.102 5.238 0 8.829 2.892 8.95 7.102h-3.745c-.225-2.435-2.27-3.905-5.258-3.905s-5.033 1.487-5.033 3.652c0 1.725 1.306 2.74 4.5 3.517l2.732.66c5.086 1.184 7.2 3.195 7.2 6.764 0 4.565-3.695 7.424-9.57 7.424-5.498 0-9.21-2.792-9.45-7.205h3.798zm23.227-15.201v4.21h3.437v2.891h-3.437v9.808c0 1.523.689 2.233 2.2 2.233.407-.007.815-.035 1.22-.084v2.874c-.68.125-1.37.182-2.06.17-3.66 0-5.087-1.354-5.087-4.804V43.524h-2.628v-2.891h2.628v-4.21h3.727zm5.428 13.106c0-5.598 3.349-9.115 8.571-9.115 5.24 0 8.574 3.517 8.574 9.115 0 5.612-3.316 9.114-8.574 9.114-5.255 0-8.571-3.502-8.571-9.114zm13.365 0c0-3.84-1.788-6.106-4.794-6.106-3.006 0-4.791 2.283-4.791 6.106 0 3.855 1.785 6.104 4.791 6.104 3.006 0 4.794-2.25 4.794-6.104zm6.838-8.896h3.539v3.028h.086c.493-1.95 2.307-3.291 4.347-3.214.427-.002.854.044 1.27.136v3.415a5.263 5.263 0 00-1.666-.22 3.768 3.768 0 00-2.89 1.171 3.643 3.643 0 00-.976 2.922v10.552h-3.71v-17.79zm26.347 12.564c-.5 3.23-3.694 5.446-7.782 5.446-5.258 0-8.521-3.467-8.521-9.03 0-5.58 3.28-9.199 8.365-9.199 5 0 8.145 3.381 8.145 8.775v1.251h-12.765v.22a4.59 4.59 0 001.275 3.6 4.746 4.746 0 003.587 1.44c1.8.166 3.497-.852 4.173-2.503h3.523zm-12.54-5.309h9.035a4.24 4.24 0 00-1.214-3.21 4.382 4.382 0 00-3.22-1.305 4.613 4.613 0 00-3.256 1.313 4.47 4.47 0 00-1.346 3.202zM75.59 15.224a5.182 5.182 0 014.208 1.692 5.583 5.583 0 011.403 4.441c0 3.944-2.06 6.21-5.612 6.21h-4.308V15.224h4.308zm-2.456 10.598h2.248a3.686 3.686 0 002.987-1.251 3.971 3.971 0 00.946-3.189 3.981 3.981 0 00-.96-3.167 3.696 3.696 0 00-2.973-1.247h-2.248v8.854zm10.16-2.917c-.155-1.67.618-3.285 1.995-4.17a4.141 4.141 0 014.497 0c1.377.885 2.15 2.5 1.996 4.17.157 1.672-.616 3.291-1.994 4.177a4.142 4.142 0 01-4.501 0c-1.378-.886-2.151-2.505-1.994-4.177zm6.66 0c0-2.019-.875-3.2-2.414-3.2-1.543 0-2.412 1.181-2.412 3.2 0 2.036.869 3.208 2.412 3.208 1.539 0 2.415-1.18 2.415-3.208zm13.112 4.662h-1.843l-1.86-6.86h-.14l-1.853 6.86h-1.825l-2.48-9.315h1.8l1.613 7.108h.133l1.85-7.108h1.704l1.85 7.108h.141l1.604-7.108h1.777l-2.471 9.315zm4.557-9.315h1.71v1.48h.133c.461-1.09 1.54-1.756 2.686-1.66a2.876 2.876 0 012.362.957 3.1 3.1 0 01.753 2.508v6.03h-1.776v-5.569c0-1.497-.629-2.241-1.943-2.241a2.03 2.03 0 00-1.598.67 2.184 2.184 0 00-.55 1.69v5.45h-1.777v-9.315zm10.474-3.637h1.776v12.952h-1.776V14.615zm4.245 8.29c-.154-1.67.62-3.285 1.997-4.17a4.142 4.142 0 014.496 0c1.377.885 2.151 2.5 1.997 4.17.157 1.672-.616 3.291-1.994 4.177a4.143 4.143 0 01-4.502 0c-1.378-.886-2.15-2.505-1.994-4.177zm6.662 0c0-2.019-.876-3.2-2.415-3.2-1.543 0-2.412 1.181-2.412 3.2 0 2.036.869 3.208 2.412 3.208 1.539 0 2.415-1.18 2.415-3.208zm3.698 2.028c0-1.677 1.206-2.644 3.347-2.781l2.438-.146v-.804c0-.983-.628-1.539-1.842-1.539-.992 0-1.68.377-1.876 1.035h-1.72c.182-1.6 1.636-2.626 3.677-2.626 2.257 0 3.53 1.163 3.53 3.13v6.365h-1.71v-1.309h-.14c-.582.956-1.614 1.515-2.704 1.463a2.66 2.66 0 01-2.098-.705 2.858 2.858 0 01-.902-2.083zm5.785-.796v-.779l-2.198.145c-1.24.086-1.801.523-1.801 1.344 0 .838.702 1.326 1.669 1.326a2.074 2.074 0 001.582-.507c.44-.383.71-.935.748-1.53zm4.103-1.232c0-2.943 1.462-4.808 3.736-4.808 1.148-.054 2.223.582 2.76 1.635h.132v-5.117h1.777v12.952h-1.702v-1.472h-.14c-.578 1.044-1.666 1.67-2.827 1.626-2.29 0-3.736-1.865-3.736-4.816zm1.835 0c0 1.976.9 3.165 2.404 3.165 1.497 0 2.423-1.206 2.423-3.156 0-1.942-.935-3.165-2.423-3.165-1.495 0-2.404 1.197-2.404 3.156zm13.918 0c-.154-1.67.62-3.285 1.997-4.17a4.141 4.141 0 014.496 0c1.377.885 2.15 2.5 1.996 4.17.157 1.672-.616 3.291-1.994 4.177a4.142 4.142 0 01-4.5 0c-1.38-.886-2.152-2.505-1.995-4.177zm6.662 0c0-2.019-.876-3.2-2.414-3.2-1.544 0-2.413 1.181-2.413 3.2 0 2.036.869 3.208 2.413 3.208 1.538 0 2.414-1.18 2.414-3.208zm4.21-4.653h1.71v1.48h.133c.461-1.09 1.54-1.756 2.686-1.66a2.876 2.876 0 012.362.957 3.1 3.1 0 01.753 2.508v6.03h-1.776v-5.569c0-1.497-.629-2.241-1.943-2.241a2.03 2.03 0 00-1.598.67 2.184 2.184 0 00-.55 1.69v5.45h-1.777v-9.315zm17.68-2.32v2.362h1.95v1.549h-1.95v4.79c0 .976.389 1.403 1.273 1.403.226 0 .452-.015.677-.043v1.532c-.319.059-.642.09-.966.094-1.975 0-2.762-.72-2.762-2.515v-5.261h-1.429v-1.549h1.43v-2.361h1.777zm4.376-1.317h1.76v5.134h.141c.484-1.1 1.582-1.767 2.745-1.669.882-.05 1.74.31 2.339.982.599.672.878 1.585.76 2.49v6.015h-1.778v-5.56c0-1.488-.67-2.242-1.924-2.242a2.063 2.063 0 00-1.664.635 2.221 2.221 0 00-.602 1.727v5.44h-1.777V14.615zm18.102 10.437c-.498 1.757-2.141 2.892-3.9 2.695a4.025 4.025 0 01-3.154-1.408 4.33 4.33 0 01-1.003-3.4 4.398 4.398 0 011.002-3.414 4.09 4.09 0 013.147-1.453c2.505 0 4.015 1.77 4.015 4.696v.642h-6.355v.103a2.516 2.516 0 00.628 1.883 2.341 2.341 0 001.769.785 2.138 2.138 0 002.141-1.13l1.71.001zm-6.248-3.002h4.546a2.295 2.295 0 00-.592-1.714 2.136 2.136 0 00-1.624-.7 2.262 2.262 0 00-1.656.699 2.426 2.426 0 00-.674 1.715zM49.287 37.933c.045-3.416 1.87-6.571 4.837-8.36-1.88-2.634-4.916-4.245-8.193-4.345-3.447-.355-6.788 2.023-8.545 2.023-1.79 0-4.495-1.988-7.407-1.93-3.832.122-7.318 2.208-9.182 5.494-3.97 6.742-1.01 16.65 2.794 22.1 1.903 2.669 4.126 5.65 7.036 5.544 2.847-.116 3.91-1.781 7.348-1.781 3.405 0 4.403 1.78 7.371 1.714 3.056-.05 4.98-2.68 6.817-5.375a21.902 21.902 0 003.117-6.227c-3.63-1.505-5.989-4.993-5.993-8.857zm-5.607-16.29a9.687 9.687 0 002.287-7.028 10.243 10.243 0 00-6.584 3.342 9.224 9.224 0 00-2.348 6.768 8.48 8.48 0 006.645-3.081z" fill="#FFF"/></g></svg>