<svg width="168" height="50" xmlns="http://www.w3.org/2000/svg"><g fill="none"><path d="M40.054 24.901a13.65 13.65 0 01-3.987 9.643 13.609 13.609 0 01-9.629 3.995H10.705L8.771 50H0l6.527-38.732h19.917c7.518.003 13.61 6.106 13.61 13.633z" fill="#DB2C3B"/><path d="M52 24.65c-.002 13.612-11.068 24.646-24.718 24.646H12.061l.491-2.894.984-5.817H26.04c.29.017.583.025.875.025h.146c8.767-.13 15.794-7.276 15.754-16.019-.04-8.744-7.133-15.825-15.9-15.875H7.73L9.205 0h18.078C40.932.001 51.998 11.037 52 24.65zM62.67 42H53l5.257-30h11.106c7.696 0 11.858 3.43 11.858 9.066 0 7.727-5.216 11.142-13.919 11.142H64.44L62.669 42zm4.602-17.158c2.69 0 4.29-.891 4.29-2.797 0-1.819-1.304-2.37-3.452-2.37h-1.488l-.92 5.151 1.57.016zM87.038 12h11.995c6.505 0 13.936 3.519 13.936 12.798 0 10.55-7.53 17.202-17.684 17.202H81.926l5.112-30zm5.57 21.566h3.07c4.908 0 7.466-3.812 7.466-7.728 0-3.05-1.717-5.548-5.689-5.548h-2.553l-2.294 13.276zM133.195 42l-.677-4.58h-9.702L120.323 42h-10.881l18.34-30h10.297l5.228 29.995-10.112.005zm-2.365-19.785l-4.258 7.726h5.13l-.872-7.726zm15.299 19.759L151.522 12h10.051l-3.882 21.616H168L166.49 42z" fill="#2D3748"/></g></svg>