<svg xmlns="http://www.w3.org/2000/svg" width="48" height="48"><g fill="none" fill-rule="evenodd"><rect width="48" height="48" fill="#F35062" rx="5"/><path fill="#FFF" fill-rule="nonzero" stroke="#FFF" stroke-width=".5" d="M16.6 19.269h-.043v-.006l.042.006zm5.342 7.902a5.34 5.34 0 01-2.038 3.576 5.33 5.33 0 01-3.288 1.129 5.4 5.4 0 01-2.674-.702 5.328 5.328 0 01-1.583-1.375 5.336 5.336 0 01-1.09-3.968 5.332 5.332 0 012.038-3.576 5.328 5.328 0 013.969-1.09 5.332 5.332 0 013.576 2.038 5.331 5.331 0 011.09 3.968zm-2.08-3.2a4.085 4.085 0 00-2.74-1.562 4.09 4.09 0 00-3.046.835 4.095 4.095 0 00-1.563 2.74 4.104 4.104 0 00.836 3.046 4.082 4.082 0 002.74 1.558 4.103 4.103 0 003.046-.831 4.092 4.092 0 001.563-2.74 4.1 4.1 0 00-.836-3.046zm2.08 3.2a5.34 5.34 0 01-2.038 3.576 5.33 5.33 0 01-3.288 1.129 5.4 5.4 0 01-2.674-.702 5.328 5.328 0 01-1.583-1.375 5.336 5.336 0 01-1.09-3.968 5.332 5.332 0 012.038-3.576 5.328 5.328 0 013.969-1.09 5.332 5.332 0 013.576 2.038 5.331 5.331 0 011.09 3.968zm-2.08-3.2a4.085 4.085 0 00-2.74-1.562 4.09 4.09 0 00-3.046.835 4.095 4.095 0 00-1.563 2.74 4.104 4.104 0 00.836 3.046 4.082 4.082 0 002.74 1.558 4.103 4.103 0 003.046-.831 4.092 4.092 0 001.563-2.74 4.1 4.1 0 00-.836-3.046zm2.08 3.2a5.34 5.34 0 01-2.038 3.576 5.33 5.33 0 01-3.288 1.129 5.4 5.4 0 01-2.674-.702 5.328 5.328 0 01-1.583-1.375 5.336 5.336 0 01-1.09-3.968 5.332 5.332 0 012.038-3.576 5.328 5.328 0 013.969-1.09 5.332 5.332 0 013.576 2.038 5.331 5.331 0 011.09 3.968zm-2.08-3.2a4.085 4.085 0 00-2.74-1.562 4.09 4.09 0 00-3.046.835 4.095 4.095 0 00-1.563 2.74 4.104 4.104 0 00.836 3.046 4.082 4.082 0 002.74 1.558 4.103 4.103 0 003.046-.831 4.092 4.092 0 001.563-2.74 4.1 4.1 0 00-.836-3.046zm14.058 6.89h-2.592l-3.339-4.947-1.038.701 2.865 4.245h-2.023v1.253h6.127V30.86h0zm7.027-.853c-.376 2.983-2.682 5.314-5.532 5.824l2.616 2.36-.84.931-3.51-3.17-16.827.113-3.254 3.05-.857-.916 2.281-2.134a9.171 9.171 0 01-6.078-3.493 9.173 9.173 0 01-1.872-6.826c.635-5.055 5.264-8.652 10.323-8.017.092.012.175.025.263.041l.126.021 1.641.435-.998-3.973h-3.923v-2.925h10.235l-2.193 2.925H19.72l1.094 4.34 13.75 3.64 1.027-5.565-2.749-4.855c-1.187 1.103-2.285 2.135-2.432 2.273l-.868-.907A3241.2 3241.2 0 0135.094 8l.852.915-2.164 2.022 3.12 5.51-1.123 6.108.36.096-.005.008c3.146.924 5.23 4.044 4.813 7.349zM21.922 13l.313-.417h-6.476V13h6.163zm13.406 10.75l-.564-.113.008-.05-17.266-4.575c-.113-.017-.189-.03-.268-.038a8.202 8.202 0 00-.998-.062c-3.965 0-7.416 2.957-7.921 6.993a7.945 7.945 0 001.612 5.9 7.957 7.957 0 005.277 3.02l18.16-.122.004-.033.581.012c2.866.143 5.393-1.976 5.753-4.829.355-2.853-1.567-5.531-4.378-6.103z"/></g></svg>