<svg xmlns="http://www.w3.org/2000/svg" width="48" height="48" viewBox="0 0 48 48">
    <g fill="none" fill-rule="evenodd">
        <g>
            <g>
                <g transform="translate(-737 -981) translate(737 981)">
                    <rect width="48" height="48" fill="#F35062" rx="5"/>
                    <path fill="#FFF" fill-rule="nonzero" d="M39.39 11.893c-3.866-3.857-10.124-3.857-13.99 0l-1.282 1.281-1.281-1.281c-3.866-3.857-10.124-3.857-13.99 0-3.78 3.778-3.798 9.774-.043 13.947 3.559 3.956 14.1 12.537 14.548 12.9.206.168.464.26.73.26h.036c.278.009.55-.083.766-.26.447-.363 10.989-8.944 14.549-12.9 3.753-4.173 3.736-10.169-.042-13.947zm-28.905 1.639c2.96-2.954 7.752-2.954 10.712 0l2.066 2.065c.226.226.536.35.855.34.32.01.63-.112.854-.34l2.066-2.065c2.96-2.954 7.754-2.954 10.714 0 2.496 2.496 2.82 6.281.988 9.354H25.953c-.529 0-.99.358-1.121.87l-.837 3.238-2.645-10.947c-.12-.498-.553-.858-1.065-.885-.511-.028-.98.284-1.153.766l-2.493 6.958H9.498c-1.832-3.073-1.51-6.858.987-9.354zm13.633 22.839c-2.237-1.838-9.29-7.69-12.723-11.167h6.06c.489 0 .925-.307 1.09-.767l1.462-4.08 2.824 11.688c.125.517.586.882 1.118.886h.009c.528 0 .99-.357 1.122-.869l1.77-6.858h9.992c-3.432 3.477-10.486 9.329-12.724 11.167z"/>
                </g>
            </g>
        </g>
    </g>
</svg>
