<svg width="248" height="76" xmlns="http://www.w3.org/2000/svg"><defs><linearGradient x1="61.118%" y1="4.948%" x2="26.325%" y2="71.907%" id="a"><stop stop-color="#00A0FF" offset="0%"/><stop stop-color="#00A1FF" offset="1%"/><stop stop-color="#00BEFF" offset="26%"/><stop stop-color="#00D2FF" offset="51%"/><stop stop-color="#00DFFF" offset="76%"/><stop stop-color="#00E3FF" offset="100%"/></linearGradient><linearGradient x1="107.685%" y1="50%" x2="-130.64%" y2="50%" id="b"><stop stop-color="#FFE000" offset="0%"/><stop stop-color="#FFBD00" offset="41%"/><stop stop-color="orange" offset="78%"/><stop stop-color="#FF9C00" offset="100%"/></linearGradient><linearGradient x1="86.219%" y1="31.055%" x2="-50.15%" y2="135.341%" id="c"><stop stop-color="#FF3A44" offset="0%"/><stop stop-color="#C31162" offset="100%"/></linearGradient><linearGradient x1="-18.754%" y1="-11.366%" x2="42.121%" y2="35.207%" id="d"><stop stop-color="#32A071" offset="0%"/><stop stop-color="#2DA771" offset="7%"/><stop stop-color="#15CF74" offset="48%"/><stop stop-color="#06E775" offset="80%"/><stop stop-color="#00F076" offset="100%"/></linearGradient></defs><g transform="translate(.28)" fill="none"><rect fill="#000" width="247.253" height="76" rx="8"/><path d="M125.334 45.12c-4.361.02-7.882 3.464-7.868 7.695.013 4.232 3.556 7.654 7.917 7.647 4.361-.006 7.893-3.439 7.893-7.67a7.448 7.448 0 00-2.295-5.47 7.92 7.92 0 00-5.647-2.201zm0 12.328c-1.966.134-3.816-.913-4.665-2.638a4.551 4.551 0 01.816-5.179c1.342-1.4 3.43-1.861 5.265-1.164 1.834.698 3.043 2.413 3.048 4.325a4.364 4.364 0 01-1.22 3.241 4.64 4.64 0 01-3.244 1.415zm-17.318-12.327c-4.363.01-7.893 3.448-7.886 7.683.007 4.234 3.548 7.662 7.911 7.658 4.364-.003 7.9-3.436 7.9-7.67a7.448 7.448 0 00-2.296-5.47 7.92 7.92 0 00-5.647-2.201h.018zm0 12.327c-1.966.141-3.822-.9-4.677-2.624a4.551 4.551 0 01.803-5.184c1.34-1.404 3.43-1.87 5.266-1.174 1.837.696 3.049 2.412 3.054 4.326a4.364 4.364 0 01-1.22 3.241 4.64 4.64 0 01-3.244 1.415h.018zm-20.628-9.963v3.249h8.036a6.71 6.71 0 01-1.86 4.097 8.357 8.357 0 01-6.194 2.383c-4.931 0-8.929-3.88-8.929-8.664 0-4.785 3.998-8.663 8.929-8.663a8.7 8.7 0 016.082 2.328l2.362-2.292c-2.223-2.185-5.262-3.402-8.426-3.375-4.503-.17-8.741 2.064-11.045 5.822a11.627 11.627 0 000 12.197c2.304 3.759 6.542 5.993 11.045 5.823 3.221.141 6.348-1.076 8.575-3.339 1.949-2.078 2.99-4.809 2.902-7.617a10.29 10.29 0 00-.186-2.04l-11.29.091zm84.28 2.527c-.993-2.835-3.687-4.781-6.77-4.891a7.55 7.55 0 00-5.433 2.271 7.094 7.094 0 00-2.008 5.4 7.392 7.392 0 002.245 5.453 7.862 7.862 0 005.605 2.217c2.643.014 5.116-1.26 6.584-3.393l-2.697-1.805c-.819 1.325-2.295 2.134-3.887 2.13-1.649.061-3.169-.862-3.832-2.328l10.584-4.242-.39-.812zm-10.788 2.563a4.129 4.129 0 011.095-3.08 4.388 4.388 0 013.034-1.396c1.227-.079 2.383.56 2.94 1.624l-7.07 2.852zm-8.594 7.436h3.479V37.45h-3.479v22.561zm-5.692-13.176h-.13a5.657 5.657 0 00-4.166-1.805c-4.222.2-7.54 3.579-7.54 7.68 0 4.102 3.318 7.481 7.54 7.68a5.468 5.468 0 004.166-1.805h.112v1.101c0 2.942-1.618 4.512-4.223 4.512-1.774-.04-3.346-1.117-3.98-2.725L135.34 62.7c1.167 2.756 3.942 4.548 7.012 4.53 4.074 0 7.44-2.328 7.44-7.995V45.572h-3.199v1.263zm-3.98 10.613c-2.487-.213-4.395-2.234-4.395-4.656 0-2.423 1.908-4.444 4.395-4.657a4.518 4.518 0 013.123 1.465 4.25 4.25 0 011.1 3.192A4.215 4.215 0 01145.741 56a4.482 4.482 0 01-3.147 1.448h.019zm45.349-19.998h-8.315v22.561h3.478v-8.555h4.855c2.702.188 5.286-1.104 6.697-3.348a6.844 6.844 0 000-7.31c-1.41-2.244-3.995-3.536-6.697-3.348h-.018zm0 10.83h-4.855v-7.69h4.929c2.203 0 3.99 1.734 3.99 3.872s-1.787 3.871-3.99 3.871l-.074-.054zm21.446-3.25c-2.588-.15-5.02 1.205-6.194 3.448l3.088 1.245c.622-1.112 1.862-1.763 3.162-1.66a3.42 3.42 0 012.488.696 3.223 3.223 0 011.232 2.21v.234a7.871 7.871 0 00-3.627-.866c-3.33 0-6.696 1.805-6.696 5.072a5.157 5.157 0 001.802 3.663 5.48 5.48 0 003.964 1.3c1.784.124 3.496-.706 4.464-2.166h.112v1.805h3.348V51.33c0-3.953-3.088-6.245-7.05-6.245l-.093-.054zm-.428 12.364c-1.134 0-2.715-.56-2.715-1.913 0-1.805 1.971-2.4 3.72-2.4a6.326 6.326 0 013.162.757c-.24 2.02-1.978 3.56-4.074 3.61l-.093-.054zm19.773-11.822l-3.98 9.782h-.112l-4.13-9.782h-3.72l6.194 13.681-3.534 7.599h3.627l9.524-21.28h-3.869zm-31.268 14.44h3.478V37.45h-3.478v22.561z" fill="#FFF"/><path d="M87.284 22.383a5.075 5.075 0 01-1.383 3.725 5.341 5.341 0 01-4.058 1.658 5.81 5.81 0 01-5.328-3.634 5.909 5.909 0 011.252-6.368 5.506 5.506 0 014.076-1.676 5.67 5.67 0 012.269.466c.667.271 1.261.7 1.734 1.248l-.978.987a3.673 3.673 0 00-3.025-1.323 4.26 4.26 0 00-3.091 1.311 4.344 4.344 0 00-1.207 3.16 4.398 4.398 0 002.625 4.095 4.32 4.32 0 004.753-.874 3.538 3.538 0 00.923-2.272h-4.003v-1.34h5.368c.049.276.073.556.073.837h0zm8.448-4.656h-4.98v3.539h4.538v1.34h-4.538v3.54h4.98v1.378h-6.456V16.349h6.456v1.378zm6.05 9.797h-1.42v-9.797h-3.099v-1.378h7.692v1.378h-3.173v9.797zm8.596 0V16.349h1.42v11.175h-1.42zm7.729 0h-1.42v-9.797h-3.1v-1.378h7.6v1.378h-3.08v9.797zm17.486-1.453a5.716 5.716 0 01-8.116 0 6.077 6.077 0 010-8.288 5.69 5.69 0 014.058-1.706 5.69 5.69 0 014.058 1.706 6.058 6.058 0 010 8.288h0zm-7.065-.931a4.232 4.232 0 006.013 0 4.802 4.802 0 000-6.407 4.232 4.232 0 00-6.013 0 4.802 4.802 0 000 6.407h0zm10.699 2.384V16.349h1.733l5.386 8.698v-8.698h1.42v11.175h-1.475l-5.626-9.108v9.108h-1.438z" stroke="#FFF" stroke-width=".2" fill="#FFF"/><path d="M1.351 1.002a3.701 3.701 0 00-.856 2.597v41.033c-.057.943.25 1.872.856 2.597l.13.13 23.071-22.965v-.538L1.482.872l-.13.13z" fill="url(#a)" transform="translate(17.556 13.154)"/><path d="M32.187 32.055l-7.635-7.661v-.538l7.635-7.68.167.093 9.143 5.175c2.607 1.466 2.607 3.877 0 5.361l-9.105 5.157-.205.093z" fill="url(#b)" transform="translate(17.556 13.154)"/><path d="M32.41 31.944l-7.858-7.829-23.2 23.114a3.044 3.044 0 003.872.111L32.43 31.944" fill="url(#c)" transform="translate(17.556 13.154)"/><path d="M32.41 16.287L5.206.89a3.044 3.044 0 00-3.873.112l23.22 23.113 7.857-7.828z" fill="url(#d)" transform="translate(17.556 13.154)"/><path d="M49.743 44.93l-26.98 15.304a3.119 3.119 0 01-3.725 0l-.13.13.13.13a3.1 3.1 0 003.724 0l27.205-15.397-.224-.166z" fill="#000" opacity=".2"/><path d="M18.908 60.123a3.701 3.701 0 01-.857-2.597v.278c-.056.943.25 1.872.857 2.597l.13-.13-.13-.148zm40.146-20.442l-9.31 5.25.167.166 9.143-5.157a3.247 3.247 0 001.862-2.67 3.452 3.452 0 01-1.862 2.41z" fill="#000" opacity=".12"/><path d="M22.762 14.304l36.292 20.554a3.452 3.452 0 011.862 2.411 3.247 3.247 0 00-1.862-2.671L22.762 14.044c-2.607-1.465-4.73-.24-4.73 2.727v.278c.056-2.986 2.142-4.21 4.73-2.745z" fill="#FFF" opacity=".25"/></g></svg>