<?xml version="1.0" encoding="UTF-8"?>
<svg width="20px" height="20px" viewBox="0 0 20 20" version="1.1" xmlns="http://www.w3.org/2000/svg" xmlns:xlink="http://www.w3.org/1999/xlink">
    <!-- Generator: Sketch 63.1 (92452) - https://sketch.com -->
    <title>icon-ig-black</title>
    <desc>Created with Sketch.</desc>
    <g id="Symbols" stroke="none" stroke-width="1" fill="none" fill-rule="evenodd">
        <g id="UI/LP/Footer" transform="translate(-1156.000000, -169.000000)" fill="#A8ACB5" stroke="#A8ACB5" stroke-width="0.5">
            <g id="Footer" transform="translate(0.000000, 38.000000)">
                <g id="Group-7">
                    <g transform="translate(135.000000, 0.000000)">
                        <g id="Social-Icons" transform="translate(905.000000, 132.000000)">
                            <path d="M126.986498,0.000819687684 C128.554024,0.00397927735 128.898427,0.0170988009 129.710688,0.0541599433 C130.668634,0.0978522986 131.322876,0.250007443 131.895342,0.472506207 C132.487172,0.702471613 132.98908,1.01021155 133.489452,1.51054797 C133.989788,2.01092011 134.297528,2.51282845 134.52753,3.10465802 C134.749993,3.67712433 134.902148,4.33136644 134.94584,5.28931151 C134.98964,6.24925721 135,6.55574675 135,9.00001786 C135,11.4442532 134.98964,11.7507428 134.94584,12.7106885 C134.902148,13.6686336 134.749993,14.3228757 134.52753,14.895342 C134.297528,15.4871715 133.989788,15.9890799 133.489452,16.489452 C132.98908,16.9897884 132.487172,17.2975284 131.895342,17.5275295 C131.322876,17.7499926 130.668634,17.9021477 129.710688,17.9458401 C128.750743,17.9896396 128.444253,18 126.000018,18 C123.555747,18 123.249257,17.9896396 122.289312,17.9458401 C121.331366,17.9021477 120.677124,17.7499926 120.104658,17.5275295 C119.512828,17.2975284 119.01092,16.9897884 118.510548,16.489452 C118.010212,15.9890799 117.702472,15.4871715 117.472506,14.895342 C117.250007,14.3228757 117.097852,13.6686336 117.05416,12.7106885 C117.017099,11.8984267 117.003979,11.5540241 117.00082,9.98649758 L117.00082,8.01352406 C117.003979,6.44597586 117.017099,6.10157325 117.05416,5.28931151 C117.097852,4.33136644 117.250007,3.67712433 117.472506,3.10465802 C117.702472,2.51282845 118.010212,2.01092011 118.510548,1.51054797 C119.01092,1.01021155 119.512828,0.702471613 120.104658,0.472506207 C120.677124,0.250007443 121.331366,0.0978522986 122.289312,0.0541599433 C123.101573,0.0170988009 123.445976,0.00397927735 125.013524,0.000819687684 Z M126.537508,1.62180778 L125.46252,1.62180778 C123.547105,1.62330611 123.23632,1.63426414 122.363228,1.67409957 C121.485737,1.71411219 121.009193,1.86072987 120.692058,1.98398304 C120.271961,2.14724883 119.972152,2.34227465 119.657231,2.65723115 C119.342275,2.97215193 119.147249,3.2719608 118.983983,3.69205761 C118.86073,4.00919338 118.714112,4.48573657 118.6741,5.36322768 C118.634264,6.23632027 118.623306,6.54710494 118.621808,8.46251972 L118.621808,9.5375081 C118.623306,11.4528951 118.634264,11.7636797 118.6741,12.6367723 C118.714112,13.5142634 118.86073,13.9908066 118.983983,14.3079424 C119.147249,14.7280392 119.34231,15.0278481 119.657231,15.3427688 C119.972152,15.6577254 120.271961,15.8527512 120.692058,16.016017 C121.009193,16.1392701 121.485737,16.2858878 122.363228,16.3259004 C123.236222,16.3657359 123.546938,16.3766939 125.462482,16.3781922 L126.537547,16.3781922 C128.453067,16.3766939 128.763811,16.3657359 129.636772,16.3259004 C130.514263,16.2858878 130.990807,16.1392701 131.307942,16.016017 C131.728039,15.8527512 132.027848,15.6577254 132.342769,15.3427688 C132.657725,15.0278481 132.852751,14.7280392 133.016017,14.3079424 C133.13927,13.9908066 133.285888,13.5142634 133.3259,12.6367723 C133.365736,11.7636797 133.376694,11.4528951 133.378192,9.5375081 L133.378192,8.46251972 C133.376694,6.54710494 133.365736,6.23632027 133.3259,5.36322768 C133.285888,4.48573657 133.13927,4.00919338 133.016017,3.69205761 C132.852751,3.2719608 132.657725,2.97215193 132.342769,2.65723115 C132.027848,2.34227465 131.728039,2.14724883 131.307942,1.98398304 C130.990807,1.86072987 130.514263,1.71411219 129.636772,1.67409957 C128.76368,1.63426414 128.452895,1.62330611 126.537508,1.62180778 Z M126.000018,4.37838128 C128.552466,4.37838128 130.621619,6.44753404 130.621619,9.00001786 C130.621619,11.552466 128.552466,13.6216187 126.000018,13.6216187 C123.447534,13.6216187 121.378381,11.552466 121.378381,9.00001786 C121.378381,6.44753404 123.447534,4.37838128 126.000018,4.37838128 Z M126.000018,6 C124.343138,6 123,7.34313801 123,9.00001786 C123,10.656862 124.343138,12 126.000018,12 C127.656862,12 129,10.656862 129,9.00001786 C129,7.34313801 127.656862,6 126.000018,6 Z M130.804212,3.11576867 C131.400686,3.11576867 131.884231,3.59931407 131.884231,4.19578796 C131.884231,4.79226184 131.400686,5.27577152 130.804212,5.27577152 C130.207774,5.27577152 129.724228,4.79226184 129.724228,4.19578796 C129.724228,3.59931407 130.207774,3.11576867 130.804212,3.11576867 Z" id="icon-ig"></path>
                        </g>
                    </g>
                </g>
            </g>
        </g>
    </g>
</svg>