<?xml version="1.0" encoding="UTF-8"?>
<svg width="18px" height="17px" viewBox="0 0 18 17" version="1.1" xmlns="http://www.w3.org/2000/svg" xmlns:xlink="http://www.w3.org/1999/xlink">
    <!-- Generator: Sketch 63.1 (92452) - https://sketch.com -->
    <title>LinkedIn</title>
    <desc>Created with Sketch.</desc>
    <g id="Symbols" stroke="none" stroke-width="1" fill="none" fill-rule="evenodd">
        <g id="UI/LP/Footer" transform="translate(-1119.000000, -170.000000)" fill="#A8ACB5" fill-rule="nonzero">
            <g id="Footer" transform="translate(0.000000, 38.000000)">
                <g id="Group-7">
                    <g transform="translate(135.000000, 0.000000)">
                        <g id="Social-Icons" transform="translate(905.000000, 132.000000)">
                            <path d="M97,10.4226865 L97,17 L93.1420172,17 L93.1420172,10.8631953 C93.1420172,9.32157994 92.5840016,8.26948774 91.1875397,8.26948774 C90.1215181,8.26948774 89.4871279,8.97852079 89.2080364,9.66439093 C89.1062595,9.90958681 89.0800619,10.2508674 89.0800619,10.594092 L89.0800619,17 L85.2207818,17 C85.2207818,17 85.2727583,6.60626712 85.2207818,5.52939888 L89.0796853,5.52939888 L89.0796853,7.15531068 C89.0718595,7.1674712 89.0616902,7.18058306 89.0543248,7.19237133 L89.0796853,7.19237133 L89.0796853,7.15531068 C89.5923784,6.37484489 90.5079943,5.25992331 92.5574274,5.25992331 C95.0965365,5.25992331 97,6.89936059 97,10.4226865 Z M81.1838105,0 C79.8635557,0 79,0.855910677 79,1.98146238 C79,3.08248622 79.8385718,3.96437244 81.1325872,3.96437244 L81.1583662,3.96437244 C82.5041907,3.96437244 83.3411723,3.08265167 83.3411723,1.98146238 C83.3158117,0.855910677 82.5041907,0 81.1838105,0 Z M79.2292074,17 L83.0870228,17 L83.0870228,5.52939888 L79.2292074,5.52939888 L79.2292074,17 Z" id="LinkedIn"></path>
                        </g>
                    </g>
                </g>
            </g>
        </g>
    </g>
</svg>