<?xml version="1.0" encoding="UTF-8"?>
<svg width="38px" height="27px" viewBox="0 0 38 27" version="1.1" xmlns="http://www.w3.org/2000/svg" xmlns:xlink="http://www.w3.org/1999/xlink">
    <!-- Generator: Sketch 63.1 (92452) - https://sketch.com -->
    <title>Shape</title>
    <desc>Created with Sketch.</desc>
    <g id="Symbols" stroke="none" stroke-width="1" fill="none" fill-rule="evenodd">
        <g id="UI/LP/TestimonialCards/Hover" transform="translate(-194.000000, -63.000000)" fill="#E2E8F0">
            <path d="M213,82.8818182 C213,87.5454545 216.231293,90 219.85034,90 C223.857143,90 227.605442,86.8090909 227.605442,82.7590909 C227.605442,79.4454545 225.14966,77.2363636 222.176871,77.2363636 C221.918367,77.2363636 221.272109,77.2363636 221.142857,77.2363636 C222.564626,73.3090909 227.217687,69.1363636 232,66.9272727 L227.993197,63 C219.979592,66.8045455 213,75.15 213,82.8818182 Z M194,82.8818182 C194,87.5454545 196.958904,90 200.534247,90 C204.356164,90 207.931507,86.8090909 207.931507,82.7590909 C207.931507,79.4454545 205.465753,77.2363636 202.630137,77.2363636 C202.383562,77.2363636 201.767123,77.2363636 201.643836,77.2363636 C203,73.3090909 207.561644,69.1363636 212,66.9272727 L208.30137,63 C200.657534,66.8045455 194,75.15 194,82.8818182 Z" id="Shape"></path>
        </g>
    </g>
</svg>