<?xml version="1.0" encoding="UTF-8"?>
<svg width="248px" height="76px" viewBox="0 0 248 76" version="1.1" xmlns="http://www.w3.org/2000/svg" xmlns:xlink="http://www.w3.org/1999/xlink">
    <!-- Generator: Sketch 63.1 (92452) - https://sketch.com -->
    <title>img-btn-google</title>
    <desc>Created with Sketch.</desc>
    <defs>
        <linearGradient x1="61.1175883%" y1="4.9481245%" x2="26.324526%" y2="71.9074222%" id="linearGradient-1">
            <stop stop-color="#00A0FF" offset="0%"></stop>
            <stop stop-color="#00A1FF" offset="1%"></stop>
            <stop stop-color="#00BEFF" offset="26%"></stop>
            <stop stop-color="#00D2FF" offset="51%"></stop>
            <stop stop-color="#00DFFF" offset="76%"></stop>
            <stop stop-color="#00E3FF" offset="100%"></stop>
        </linearGradient>
        <linearGradient x1="107.684729%" y1="50%" x2="-130.640394%" y2="50%" id="linearGradient-2">
            <stop stop-color="#FFE000" offset="0%"></stop>
            <stop stop-color="#FFBD00" offset="41%"></stop>
            <stop stop-color="#FFA500" offset="78%"></stop>
            <stop stop-color="#FF9C00" offset="100%"></stop>
        </linearGradient>
        <linearGradient x1="86.219293%" y1="31.0549048%" x2="-50.1497903%" y2="135.34059%" id="linearGradient-3">
            <stop stop-color="#FF3A44" offset="0%"></stop>
            <stop stop-color="#C31162" offset="100%"></stop>
        </linearGradient>
        <linearGradient x1="-18.7537448%" y1="-11.3663426%" x2="42.1210306%" y2="35.206957%" id="linearGradient-4">
            <stop stop-color="#32A071" offset="0%"></stop>
            <stop stop-color="#2DA771" offset="7%"></stop>
            <stop stop-color="#15CF74" offset="48%"></stop>
            <stop stop-color="#06E775" offset="80%"></stop>
            <stop stop-color="#00F076" offset="100%"></stop>
        </linearGradient>
    </defs>
    <g id="Landing-Page" stroke="none" stroke-width="1" fill="none" fill-rule="evenodd">
        <g id="Landing-Page---Web" transform="translate(-384.000000, -381.000000)">
            <g id="Group-11" transform="translate(135.000000, 146.000000)">
                <g id="Store-Buttons" transform="translate(0.000000, 235.000000)">
                    <g id="UI/Buttons/GooglePlay" transform="translate(249.280000, 0.000000)">
                        <g id="Google-Play-Badge-US" transform="translate(0.000000, 0.000000)">
                            <rect id="Background-Black" fill="#000000" fill-rule="nonzero" x="0" y="0" width="247.253333" height="76" rx="8"></rect>
                            <path d="M125.333722,45.1207456 C120.972633,45.1406597 117.45197,48.5837525 117.465596,52.8154766 C117.479302,57.0472007 121.022133,60.4688161 125.383266,60.4622188 C129.744399,60.4556025 133.276203,57.0232695 133.276251,52.7915246 C133.306892,50.7418451 132.478709,48.7679027 130.98139,47.3218146 C129.484072,45.8757264 127.445907,45.0813912 125.333722,45.1207456 L125.333722,45.1207456 Z M125.333722,57.4481387 C123.368044,57.5815295 121.518096,56.5354305 120.668689,54.8101796 C119.819282,53.0849286 120.143058,51.0311852 121.48516,49.6312323 C122.827261,48.2312794 124.914904,47.7696594 126.74959,48.4671601 C128.584277,49.1646607 129.793106,50.8795141 129.797907,52.7915246 C129.858439,53.9875739 129.418512,55.1566383 128.577958,56.0334251 C127.737403,56.9102119 126.567497,57.4203729 125.333722,57.4481387 L125.333722,57.4481387 Z M108.016406,45.1207456 C103.652851,45.1307082 100.122849,48.5694319 100.12968,52.8035289 C100.136531,57.0376258 103.677627,60.465593 108.041193,60.4622824 C112.404759,60.4589669 115.940322,57.0256268 115.940334,52.7915246 C115.970975,50.7418451 115.142792,48.7679027 113.645474,47.3218146 C112.148156,45.8757264 110.109991,45.0813912 107.997806,45.1207456 L108.016406,45.1207456 Z M108.016406,57.4481387 C106.049702,57.5890518 104.19436,56.5481691 103.338967,54.8240042 C102.483574,53.0998392 102.802281,51.04342 104.142449,49.6396347 C105.482617,48.2358495 107.571397,47.770499 109.408402,48.4664554 C111.245407,49.1624118 112.456636,50.8779831 112.46199,52.7915246 C112.522522,53.9875739 112.082595,55.1566383 111.242041,56.0334251 C110.401486,56.9102119 109.23158,57.4203729 107.997806,57.4481387 L108.016406,57.4481387 Z M87.3881535,47.4851504 L87.3881535,50.7339509 L95.4236857,50.7339509 C95.2976905,52.2641428 94.6421644,53.7080373 93.5636088,54.8310494 C91.9379441,56.4378062 89.6882189,57.3031303 87.3695527,57.2135031 C82.4385506,57.2135031 78.4411835,53.3347363 78.4411835,48.5500351 C78.4411835,43.7653338 82.4385506,39.886567 87.3695527,39.886567 C89.6347464,39.8507198 91.822134,40.6880319 93.4520042,42.2148741 L95.8143019,39.9226648 C93.5913604,37.7384929 90.5516205,36.5209074 87.3881535,36.5475221 C82.8848343,36.3774637 78.646524,38.6117229 76.3427453,42.3701975 C74.0389666,46.1286722 74.0389666,50.8089579 76.3427453,54.5674326 C78.646524,58.3259072 82.8848343,60.5601664 87.3881535,60.390108 C90.6093696,60.5313484 93.7361137,59.3138097 95.963108,57.051063 C97.9118655,54.9734941 98.9523318,52.2424073 98.864828,49.4344307 C98.8708302,48.7503565 98.8085368,48.0673261 98.6788203,47.394906 L87.3881535,47.4851504 Z M171.668238,50.0119953 C170.675105,47.1768936 167.981431,45.2309396 164.897558,45.1207318 C162.840989,45.116844 160.874482,45.939096 159.464979,47.3922592 C158.055477,48.8454224 157.328711,50.7998711 157.457251,52.7915246 C157.411569,54.829779 158.222048,56.7984297 159.702461,58.2451309 C161.182873,59.6918321 163.205927,60.4921903 165.306775,60.4623036 C167.949681,60.4761272 170.423183,59.2014902 171.891447,57.0691119 L169.194336,55.2642228 C168.37543,56.588907 166.898734,57.3979032 165.306775,57.393992 C163.657987,57.4549704 162.138397,56.5316156 161.475017,55.065685 L172.058854,50.8241954 L171.668238,50.0119953 Z M160.879792,52.5749379 C160.803626,51.4471786 161.198471,50.337137 161.975315,49.495059 C162.75216,48.652981 163.845611,48.1497497 165.009163,48.0988128 C166.235642,48.0203932 167.392045,48.6595603 167.948084,49.723213 L160.879792,52.5749379 Z M152.286237,60.0110813 L155.764581,60.0110813 L155.764581,37.4499667 L152.286237,37.4499667 L152.286237,60.0110813 Z M146.594402,46.8353903 L146.464196,46.8353903 C145.403882,45.6850926 143.888096,45.0284796 142.297624,45.0304965 C138.075522,45.2291683 134.757499,48.6086571 134.757499,52.7103046 C134.757499,56.811952 138.075522,60.1914409 142.297624,60.390108 C143.893252,60.4161413 145.418863,59.7552722 146.464196,58.5852188 L146.575801,58.5852188 L146.575801,59.6862012 C146.575801,62.6281706 144.957534,64.1984241 142.353426,64.1984241 C140.579476,64.1581344 139.006642,63.0812581 138.372862,61.4730415 L135.340936,62.7003661 C136.508472,65.4560907 139.282869,67.2484311 142.353426,67.2307692 C146.426995,67.2307692 149.793734,64.9023309 149.793734,59.2349789 L149.793734,45.5719679 L146.594402,45.5719679 L146.594402,46.8353903 Z M142.613837,57.4481387 C140.126705,57.2354501 138.219175,55.2142184 138.219175,52.7915246 C138.219175,50.3688308 140.126705,48.3475991 142.613837,48.1349105 C143.815669,48.1947562 144.941697,48.7228896 145.736627,49.5995718 C146.531556,50.476254 146.928049,51.627221 146.836211,52.7915246 C146.938766,53.961182 146.543542,55.1206098 145.742431,56.0002344 C144.94132,56.879859 143.80412,57.4030414 142.595236,57.4481387 L142.613837,57.4481387 Z M187.962512,37.4499667 L179.647968,37.4499667 L179.647968,60.0110813 L183.126312,60.0110813 L183.126312,51.4559066 L187.981113,51.4559066 C190.683217,51.6442717 193.267403,50.3522331 194.677632,48.1077884 C196.08786,45.8633438 196.08786,43.0425295 194.677632,40.7980849 C193.267403,38.5536402 190.683217,37.2616016 187.981113,37.4499667 L187.962512,37.4499667 Z M187.962512,48.2793017 L183.107711,48.2793017 L183.107711,40.5904738 L188.036915,40.5904738 C190.240457,40.5904738 192.02678,42.3237977 192.02678,44.4619611 C192.02678,46.6001245 190.240457,48.3334484 188.036915,48.3334484 L187.962512,48.2793017 Z M209.409199,45.0305012 C206.821297,44.8804047 204.388269,46.2345211 203.215143,48.4778395 L206.30287,49.723213 C206.924891,48.6108024 208.165039,47.9595756 209.465001,48.062715 C210.35696,47.9616315 211.253379,48.2124668 211.952907,48.7588791 C212.652434,49.3052914 213.096426,50.1014725 213.185155,50.9685865 L213.185155,51.2032221 C212.067979,50.6292657 210.822099,50.3316866 209.558005,50.3368753 C206.228467,50.3368753 202.861728,52.1417645 202.861728,55.4086139 C202.92811,56.8159019 203.578305,58.1372986 204.664387,59.0721732 C205.750469,60.0070477 207.180079,60.4758992 208.627966,60.3720591 C210.412206,60.4963855 212.124109,59.6658297 213.092151,58.2061921 L213.203756,58.2061921 L213.203756,60.0110813 L216.551894,60.0110813 L216.551894,51.3295644 C216.551894,47.3768571 213.464166,45.0846478 209.502203,45.0846478 L209.409199,45.0305012 Z M208.981381,57.393992 C207.846734,57.393992 206.265669,56.8344763 206.265669,55.4808095 C206.265669,53.6759203 208.23735,53.0803069 209.985823,53.0803069 C211.090786,53.0538506 212.182817,53.3156417 213.147953,53.8383603 C212.907438,55.8587804 211.169806,57.3985774 209.074385,57.4481387 L208.981381,57.393992 Z M228.753999,45.5719679 L224.773434,55.3544672 L224.661829,55.3544672 L220.532459,45.5719679 L216.812305,45.5719679 L223.006361,59.2530278 L219.472215,66.8516112 L223.099365,66.8516112 L232.622959,45.5719679 L228.753999,45.5719679 Z M197.486106,60.0110813 L200.96445,60.0110813 L200.96445,37.4499667 L197.486106,37.4499667 L197.486106,60.0110813 Z" id="Google-Play" fill="#FFFFFF" fill-rule="nonzero"></path>
                            <path d="M87.2843331,22.3832231 C87.3476996,23.763752 86.8476709,25.110132 85.9009285,26.1081856 C84.8429923,27.2178579 83.3674235,27.8205989 81.8429414,27.7657939 C79.5046929,27.7473158 77.4052527,26.3153236 76.5153428,24.1319304 C75.6254329,21.9485371 76.1184785,19.4392409 77.766509,17.7642697 C78.8373251,16.6604254 80.3130414,16.0536094 81.8429414,16.0880366 C82.6227346,16.0854131 83.3948188,16.2438672 84.1117251,16.5536569 C84.77918,16.8254926 85.3733607,17.2531239 85.8455923,17.8015193 L84.8679863,18.7886343 C84.1215875,17.8921783 83.0010999,17.4023707 81.8429414,17.4662727 C80.6787591,17.4605062 79.5624991,17.9339187 78.7515596,18.7773461 C77.9406201,19.6207735 77.5050056,20.7614069 77.5451643,21.9362276 C77.520451,23.7115255 78.5559287,25.327507 80.169821,26.0323049 C81.7837133,26.7371028 83.6590614,26.392299 84.9233225,25.1583202 C85.4909048,24.5372509 85.8182617,23.7307307 85.8455923,22.8860931 L81.8429414,22.8860931 L81.8429414,21.5451066 L87.2105515,21.5451066 C87.2597512,21.8217113 87.2844427,22.1021927 87.2843331,22.3832231 L87.2843331,22.3832231 Z M95.7323243,17.72702 L90.7520675,17.72702 L90.7520675,21.2657344 L95.2896348,21.2657344 L95.2896348,22.6067209 L90.7520675,22.6067209 L90.7520675,26.1454352 L95.7323243,26.1454352 L95.7323243,27.5236713 L89.2764358,27.5236713 L89.2764358,16.3487839 L95.7323243,16.3487839 L95.7323243,17.72702 Z M101.782414,27.5236713 L100.362119,27.5236713 L100.362119,17.72702 L97.2632921,17.72702 L97.2632921,16.3487839 L104.955022,16.3487839 L104.955022,17.72702 L101.782414,17.72702 L101.782414,27.5236713 Z M110.377968,27.5236713 L110.377968,16.3487839 L111.798264,16.3487839 L111.798264,27.5236713 L110.377968,27.5236713 Z M118.106589,27.5236713 L116.686294,27.5236713 L116.686294,17.72702 L113.587467,17.72702 L113.587467,16.3487839 L121.18697,16.3487839 L121.18697,17.72702 L118.106589,17.72702 L118.106589,27.5236713 Z M135.592824,26.070936 C133.348001,28.3249627 129.721673,28.3249627 127.47685,26.070936 C125.300789,23.7451325 125.300789,20.108698 127.47685,17.7828945 C128.550369,16.6910087 130.011092,16.0769231 131.534837,16.0769231 C133.058582,16.0769231 134.519305,16.6910087 135.592824,17.7828945 C137.778171,20.1049613 137.778171,23.7488692 135.592824,26.070936 L135.592824,26.070936 Z M128.528237,25.1396953 C130.190765,26.8113934 132.878909,26.8113934 134.541436,25.1396953 C136.17422,23.3222324 136.17422,20.5502229 134.541436,18.7327599 C132.878909,17.0610618 130.190765,17.0610618 128.528237,18.7327599 C126.895454,20.5502229 126.895454,23.3222324 128.528237,25.1396953 L128.528237,25.1396953 Z M139.226567,27.5236713 L139.226567,16.3487839 L140.960434,16.3487839 L146.34649,25.0465713 L146.34649,16.3487839 L147.766785,16.3487839 L147.766785,27.5236713 L146.291153,27.5236713 L140.665308,18.4161381 L140.665308,27.5236713 L139.226567,27.5236713 Z" id="GET-IT-ON" stroke="#FFFFFF" stroke-width="0.2" fill="#FFFFFF" fill-rule="nonzero"></path>
                            <g id="Icon" transform="translate(17.556450, 13.153846)" fill-rule="nonzero">
                                <path d="M1.35131461,1.00171598 C0.744408017,1.72723351 0.438080118,2.65602194 0.494772673,3.5987574 L0.494772673,44.6320118 C0.438080118,45.5747473 0.744408017,46.5035357 1.35131461,47.2290533 L1.48165795,47.3589053 L24.5524289,24.3936391 L24.5524289,23.8556805 L1.48165795,0.871863905 L1.35131461,1.00171598 Z" id="Shape" fill="url(#linearGradient-1)"></path>
                                <path d="M32.1868245,32.0549112 L24.5524289,24.3936391 L24.5524289,23.8556805 L32.1868245,16.175858 L32.3544088,16.2686095 L41.4970629,21.444142 C44.1039297,22.9096154 44.1039297,25.3211538 41.4970629,26.8051775 L32.3916497,31.9621598 L32.1868245,32.0549112 Z" id="Shape" fill="url(#linearGradient-2)"></path>
                                <path d="M32.4102702,31.9436095 L24.5524289,24.1153846 L1.35131461,47.2290533 C2.44753511,48.1890726 4.07442709,48.2358253 5.22437382,47.340355 L32.4288907,31.9436095" id="Shape" fill="url(#linearGradient-3)"></path>
                                <path d="M32.4102702,16.2871598 L5.20575334,0.890414201 C4.05580662,-0.00505608551 2.42891463,0.0416966122 1.33269414,1.00171598 L24.5524289,24.1153846 L32.4102702,16.2871598 Z" id="Shape" fill="url(#linearGradient-4)"></path>
                                <path d="M32.1868245,31.7766568 L5.20575334,47.0806509 C4.10163082,47.9030531 2.58578048,47.9030531 1.48165795,47.0806509 L1.35131461,47.210503 L1.48165795,47.340355 C2.58370303,48.1689582 4.10370826,48.1689582 5.20575334,47.340355 L32.4102702,31.9436095 L32.1868245,31.7766568 Z" id="Shape" fill="#000000" opacity="0.2"></path>
                                <path d="M1.35131461,46.9693491 C0.744408017,46.2438316 0.438080118,45.3150431 0.494772673,44.3723077 L0.494772673,44.6505621 C0.438080118,45.5932976 0.744408017,46.522086 1.35131461,47.2476036 L1.48165795,47.1177515 L1.35131461,46.9693491 Z M41.4970629,26.5269231 L32.1868245,31.7766568 L32.3544088,31.9436095 L41.4970629,26.7866272 C42.5529745,26.2924718 43.2631563,25.2736645 43.3591106,24.1153846 C43.1468921,25.1631757 42.4591941,26.0538136 41.4970629,26.5269231 Z" id="Shape" fill="#000000" opacity="0.12"></path>
                                <path d="M5.20575334,1.15011834 L41.4970629,21.7038462 C42.4591941,22.1769556 43.1468921,23.0675935 43.3591106,24.1153846 C43.2631563,22.9571048 42.5529745,21.9382974 41.4970629,21.444142 L5.20575334,0.890414201 C2.59888657,-0.575059172 0.476152197,0.649260355 0.476152197,3.61730769 L0.476152197,3.89556213 C0.532013627,0.908964497 2.61750705,-0.31535503 5.20575334,1.15011834 L5.20575334,1.15011834 Z" id="Shape" fill="#FFFFFF" opacity="0.25"></path>
                            </g>
                        </g>
                    </g>
                </g>
            </g>
        </g>
    </g>
</svg>