<?xml version="1.0" encoding="UTF-8"?>
<svg width="110px" height="33px" viewBox="0 0 110 33" version="1.1" xmlns="http://www.w3.org/2000/svg" xmlns:xlink="http://www.w3.org/1999/xlink">
    <!-- Generator: Sketch 63.1 (92452) - https://sketch.com -->
    <title>UI/LP/logo</title>
    <desc>Created with Sketch.</desc>
    <g id="Landing-Page" stroke="none" stroke-width="1" fill="none" fill-rule="evenodd">
        <g id="Landing-Page---Web-old" transform="translate(-145.000000, -28.000000)">
            <g id="UI/LP/Logo/White" transform="translate(145.000000, 28.000000)">
                <g id="Group-5">
                    <g id="Group-2" fill-rule="nonzero">
                        <path d="M26.1891892,16.4349619 C26.1895428,18.8218282 25.2517843,21.1110767 23.5822098,22.7990988 C21.9126352,24.487121 19.6480074,25.4356428 17.2865186,25.4360003 L6.9994329,25.4360003 L5.73505363,33 L0,33 L4.26794689,7.43661972 L17.2905198,7.43661972 C22.2057663,7.43885256 26.1891892,11.4668937 26.1891892,16.4349619 L26.1891892,16.4349619 Z" id="Path" fill="#DB2C3B"></path>
                        <path d="M34,16.268941 C33.9985349,25.252986 26.763121,32.5352113 17.8382924,32.5352113 C17.789209,32.5352113 17.7401256,32.5352113 17.6936953,32.5352113 L17.6936953,32.5352113 L7.88629945,32.5352113 L8.20733148,30.6256171 L8.85072212,26.7863981 L17.0264263,26.7863981 C17.216127,26.7970811 17.4071544,26.8024226 17.5981817,26.8024226 C17.6300196,26.8024226 17.6618575,26.8024226 17.6936953,26.8024226 C23.4258046,26.7166504 28.020453,22.000759 27.9942681,16.2300397 C27.9680831,10.4593205 23.3308302,5.78587706 17.5981817,5.75281933 L5.05405405,5.75281933 L6.01847673,0 L17.6751232,0 L17.6751232,0 C17.7281864,0 17.7825761,0 17.8382924,0 C26.7638536,0.000737394444 33.9992675,7.28415845 34,16.268941 L34,16.268941 Z" id="Path" fill="#FFFFFF"></path>
                    </g>
                    <g id="Group" transform="translate(35.000000, 8.000000)" fill="#FFFFFF" fill-rule="nonzero">
                        <path d="M6.30615709,20 L0,20 L3.42820174,0 L10.6714451,0 C15.6903591,0 18.404908,2.28708791 18.404908,6.04395604 C18.404908,11.1950549 15.0033848,13.4718407 9.32750999,13.4718407 L7.46000709,13.4718407 L6.30615709,20 Z M9.30750103,8.56112637 C11.0616198,8.56112637 12.1054205,7.96703297 12.1054205,6.69642857 C12.1054205,5.4842033 11.2550398,5.11675824 9.85441259,5.11675824 L8.88397805,5.11675824 L8.28370926,8.55082418 L9.30750103,8.56112637 Z" id="Shape"></path>
                        <path d="M22.1986886,0 L30.021586,0 C34.2641283,0 39.1104294,2.34586983 39.1104294,8.5316847 C39.1104294,15.5658595 34.199208,20 27.5773363,20 L18.8650307,20 L22.1986886,0 Z M25.83098,14.3774687 L27.8337715,14.3774687 C31.0343428,14.3774687 32.7027948,11.8358235 32.7027948,9.22548515 C32.7027948,7.19216899 31.5829195,5.52636098 28.9925991,5.52636098 L27.3273931,5.52636098 L25.83098,14.3774687 Z" id="Shape"></path>
                        <path d="M52.301055,20 L51.8594041,16.9471154 L45.5324207,16.9471154 L43.9063425,20 L36.809816,20 L48.7711938,0 L55.4862946,0 L58.8957055,19.9965659 L52.301055,20 Z M50.7586227,6.80975275 L47.9815756,11.9608516 L51.3274155,11.9608516 L50.7586227,6.80975275 Z" id="Shape"></path>
                        <polygon id="Path" points="60.7361963 19.9828444 64.2533923 0 70.8087888 0 68.2769551 14.4107051 75 14.4107051 74.0146377 20"></polygon>
                    </g>
                </g>
            </g>
        </g>
    </g>
</svg>