<svg id="Layer_1" data-name="Layer 1" xmlns="http://www.w3.org/2000/svg" viewBox="0 0 31 29.92"><defs><style>.cls-1{fill:#da2c3b;}.cls-2{fill:#002b39;}</style></defs><path class="cls-1" d="M24.52,15.93a8.17,8.17,0,0,1-8.16,8.17H6.92L5.76,31H.5L4.41,7.77h12A8.17,8.17,0,0,1,24.52,15.93Z" transform="translate(-0.5 -1.04)"/><path class="cls-2" d="M31.5,15.94A14.9,14.9,0,0,1,16.6,30.83H7.43l.29-1.75.6-3.51h8.15A9.64,9.64,0,0,0,16.38,6.3H4.82L5.71,1H16.6A14.9,14.9,0,0,1,31.5,15.94Z" transform="translate(-0.5 -1.04)"/></svg>